HIERARCHY
ROOT Hips
{
	OFFSET -0.001795 -0.223333 0.028219
	CHANNELS 6 Xposition Yposition Zposition Zrotation Yrotation Xrotation 
	JOINT LeftUpLeg
	{
		OFFSET 0.069520 -0.091406 -0.006815
		CHANNELS 3 Zrotation Yrotation Xrotation
		JOINT LeftLeg
		{
			OFFSET 0.034277 -0.375199 -0.004496
			CHANNELS 3 Zrotation Yrotation Xrotation
			JOINT LeftFoot
			{
				OFFSET -0.013596 -0.397961 -0.043693
				CHANNELS 3 Zrotation Yrotation Xrotation
				JOINT LeftToe
				{
					OFFSET 0.026358 -0.055791 0.119288
					CHANNELS 3 Zrotation Yrotation Xrotation
					End Site
					{
						OFFSET 0.000000 0.000000 0.000000
					}
				}
			}
		}
	}
	JOINT RightUpLeg
	{
		OFFSET -0.067670 -0.090522 -0.004320
		CHANNELS 3 Zrotation Yrotation Xrotation
		JOINT RightLeg
		{
			OFFSET -0.038290 -0.382569 -0.008850
			CHANNELS 3 Zrotation Yrotation Xrotation
			JOINT RightFoot
			{
				OFFSET 0.015774 -0.398415 -0.042312
				CHANNELS 3 Zrotation Yrotation Xrotation
				JOINT RightToe
				{
					OFFSET -0.025372 -0.048144 0.123348
					CHANNELS 3 Zrotation Yrotation Xrotation
					End Site
					{
						OFFSET 0.000000 0.000000 0.000000
					}
				}
			}
		}
	}
	JOINT Spine
	{
		OFFSET -0.002533 0.108963 -0.026696
		CHANNELS 3 Zrotation Yrotation Xrotation
		JOINT Spine1
		{
			OFFSET 0.005487 0.135180 0.001092
			CHANNELS 3 Zrotation Yrotation Xrotation
			JOINT Spine2
			{
				OFFSET 0.001457 0.052922 0.025425
				CHANNELS 3 Zrotation Yrotation Xrotation
				JOINT Neck
				{
					OFFSET -0.002778 0.213870 -0.042857
					CHANNELS 3 Zrotation Yrotation Xrotation
					JOINT Head
					{
						OFFSET 0.005152 0.064970 0.051349
						CHANNELS 3 Zrotation Yrotation Xrotation
						End Site
						{
							OFFSET 0.000000 0.000000 0.000000
						}
					}
				}
				JOINT LeftShoulder
				{
					OFFSET 0.078845 0.121749 -0.034090
					CHANNELS 3 Zrotation Yrotation Xrotation
					JOINT LeftArm
					{
						OFFSET 0.090977 0.030469 -0.008868
						CHANNELS 3 Zrotation Yrotation Xrotation
						JOINT LeftForeArm
						{
							OFFSET 0.259612 -0.012772 -0.027456
							CHANNELS 3 Zrotation Yrotation Xrotation
							JOINT LeftHand
							{
								OFFSET 0.249234 0.008986 -0.001171
								CHANNELS 3 Zrotation Yrotation Xrotation
								End Site
								{
									OFFSET 0.000000 0.000000 0.000000
								}
							}
						}
					}
				}
				JOINT RightShoulder
				{
					OFFSET -0.081759 0.118833 -0.038615
					CHANNELS 3 Zrotation Yrotation Xrotation
					JOINT RightArm
					{
						OFFSET -0.096012 0.032551 -0.009143
						CHANNELS 3 Zrotation Yrotation Xrotation
						JOINT RightForeArm
						{
							OFFSET -0.253742 -0.013329 -0.021401
							CHANNELS 3 Zrotation Yrotation Xrotation
							JOINT RightHand
							{
								OFFSET -0.255298 0.007772 -0.005559
								CHANNELS 3 Zrotation Yrotation Xrotation
								End Site
								{
									OFFSET 0.000000 0.000000 0.000000
								}
							}
						}
					}
				}
			}
		}
	}
}
MOTION
Frames: 8
Frame Time: 0.050000
-0.072441 0.956935 0.167571 -0.117745 10.514435 9.813424 -3.543653 2.549329 27.568596 8.314579 -5.976424 34.347791 -2.477814 2.696216 15.089998 0.000000 0.000000 0.000000 7.301497 4.101460 -32.082938 2.251152 -0.225977 10.620459 -6.420218 -15.857539 5.337256 0.000000 0.000000 0.000000 -0.053614 0.137323 -4.575222 8.596827 -4.287849 0.751503 -9.311386 -29.347614 8.406912 -6.388348 4.631987 -2.677218 0.000000 0.000000 0.000000 6.659878 -1.874542 -0.215333 -53.091921 -20.980156 6.215142 143.647340 -81.915862 -119.267350 0.000000 0.000000 0.000000 -5.774025 -20.787799 -3.924796 34.920438 -37.384957 -16.205333 95.549496 43.690311 38.555489 0.000000 0.000000 0.000000 
-0.079575 0.920552 0.177363 -0.321096 6.694338 7.004458 -2.905850 2.146468 20.592648 -1.420914 -4.762742 70.350621 -0.348195 1.365990 4.521331 0.000000 0.000000 0.000000 10.604328 4.425419 -26.621300 0.570977 0.321567 18.704655 -6.353120 -15.751689 -7.123789 0.000000 0.000000 0.000000 -0.067380 -0.012152 0.291414 7.584589 -3.141288 -3.886897 -7.790721 -22.054225 11.400790 -5.237756 3.630074 -3.609056 0.000000 0.000000 0.000000 4.142016 -1.670608 0.198291 -55.979774 -14.066333 2.010697 -155.346925 -83.148266 168.926838 0.000000 0.000000 0.000000 1.806336 -17.488332 -6.652123 43.708804 -34.074042 -17.882713 120.160280 51.220945 72.539259 0.000000 0.000000 0.000000 
-0.083896 0.893985 0.168067 -4.215850 0.180105 6.456269 -0.392617 0.409729 4.235330 -4.946594 2.154201 101.060104 -3.198393 -2.524877 7.914585 0.000000 0.000000 0.000000 16.050581 4.589563 -21.297534 -1.006146 1.489128 26.961086 -6.635452 -13.928665 -16.905907 0.000000 0.000000 0.000000 4.692946 -0.390343 2.918524 4.744754 -2.200287 -0.428670 -4.011518 -12.021831 8.103562 -2.327313 1.415617 -10.237561 0.000000 0.000000 0.000000 0.990460 5.850993 -2.139547 -59.076527 -3.495366 -3.795188 -101.634868 -69.267671 92.526026 0.000000 0.000000 0.000000 10.278800 -5.358779 -4.773205 55.080416 -20.519925 -15.161462 145.473995 49.345339 107.765285 0.000000 0.000000 0.000000 
-0.083518 0.901635 0.162181 -4.016215 -4.406656 5.083261 -1.906627 -1.053909 -10.312640 -4.809200 7.227497 110.786608 -0.529137 1.813074 6.237701 0.000000 0.000000 0.000000 15.735011 1.404900 -8.203065 -7.161128 3.034744 19.761083 -5.826561 -7.859735 -17.816033 0.000000 0.000000 0.000000 3.905206 -0.590708 6.705940 -1.291129 0.615061 -1.754593 4.220855 2.998816 9.490802 0.282524 0.628060 -11.493233 0.000000 0.000000 0.000000 -4.538050 1.457880 -0.938216 -56.482842 9.297823 -11.304304 -89.922660 -57.112709 61.372559 0.000000 0.000000 0.000000 7.989244 -2.819137 -1.856327 61.724520 -1.710221 -7.303629 153.570235 52.253067 135.719471 0.000000 0.000000 0.000000 
-0.081016 0.940902 0.157552 -1.792981 -6.051856 5.719476 -3.358943 -2.854930 -27.186857 -3.999550 6.652388 104.977797 0.542582 1.045684 -0.228830 0.000000 0.000000 0.000000 6.355930 -0.806150 3.476109 -6.336896 1.446174 8.045356 -1.434466 -1.885724 -2.967252 0.000000 0.000000 0.000000 1.284187 -0.316721 5.621381 -2.193690 1.030285 -0.972408 4.191736 12.686542 11.975612 3.250677 -0.168840 -13.878283 0.000000 0.000000 0.000000 -0.030055 2.985652 -1.070502 -54.909881 22.401831 -17.991802 -90.514787 -43.752493 43.285333 0.000000 0.000000 0.000000 6.803435 0.332621 0.422413 60.751822 13.348736 1.116128 169.590975 55.343729 178.310492 0.000000 0.000000 0.000000 
-0.082132 0.976750 0.156326 -1.428055 -6.904307 6.743296 -2.846918 -3.392834 -36.152307 -2.594743 3.556569 85.998177 2.725131 5.290762 -1.312120 0.000000 0.000000 0.000000 0.498404 -1.048231 11.138620 -5.584039 0.563959 0.397299 3.560681 0.760728 12.219088 0.000000 0.000000 0.000000 -0.377891 -0.187211 5.789177 -4.158848 1.966743 -0.221140 5.240896 20.727774 8.286004 4.187964 -2.033034 -4.587760 0.000000 0.000000 0.000000 2.984107 8.296078 -1.751279 -50.429708 29.569995 -20.316334 -90.006712 -36.185423 31.723200 0.000000 0.000000 0.000000 2.755369 4.420346 2.264567 60.067593 16.249455 4.229343 -175.594755 58.104411 -148.941471 0.000000 0.000000 0.000000 
-0.084067 1.001202 0.157940 -0.404451 -5.757116 8.749097 -3.245148 -3.893566 -39.362169 -0.180190 -0.335230 57.701515 4.513131 10.828862 6.967987 0.000000 0.000000 0.000000 -5.163917 -0.217949 11.799162 -5.386573 1.343899 8.853917 1.401999 -6.398660 21.477928 0.000000 0.000000 0.000000 -0.465099 -0.097251 3.258927 -7.946511 3.814281 0.661946 6.323855 25.193975 6.825661 7.844072 -4.944824 -3.773667 0.000000 0.000000 0.000000 6.147275 9.991243 -0.826595 -44.444708 33.339366 -19.884971 -93.214073 -32.627635 27.468206 0.000000 0.000000 0.000000 0.420240 0.112125 0.289852 62.839145 13.020688 4.269631 175.653855 60.828763 -161.410730 0.000000 0.000000 0.000000 
-0.089884 1.000362 0.163071 -1.090049 -3.080961 6.727530 -3.173162 -3.457670 -31.610242 1.826307 -1.402276 28.110002 3.606029 10.178975 11.750829 0.000000 0.000000 0.000000 -6.947735 -0.138489 14.312613 -7.294140 3.585439 24.738592 0.589379 -8.920736 28.689634 0.000000 0.000000 0.000000 -2.687989 -0.003925 5.744249 -1.473706 0.699742 -0.821759 0.993514 27.835006 9.367433 9.815266 -6.589945 -3.103287 0.000000 0.000000 0.000000 5.477222 13.595576 -1.964093 -41.468163 30.803427 -18.118932 -95.818098 -39.786772 34.820349 0.000000 0.000000 0.000000 2.564891 -1.125810 0.293453 59.150674 12.863803 3.470589 168.503516 61.888751 -168.955084 0.000000 0.000000 0.000000 
